HIERARCHY
ROOT Hips
{
	OFFSET	0.00	0.00	0.00
	CHANNELS 6 Xposition Yposition Zposition Zrotation Xrotation Yrotation
	JOINT LeftUpLeg
	{
		OFFSET	 0.126116	-0.065224	 0.014019
		CHANNELS 3 Zrotation Xrotation Yrotation
		JOINT LeftLeg
		{
			OFFSET	 0.000000	 0.569914	 0.000000
			CHANNELS 3 Zrotation Xrotation Yrotation
			JOINT LeftFoot
			{
				OFFSET	 0.000000	 0.544423	 0.000000
				CHANNELS 3 Zrotation Xrotation Yrotation
				JOINT LeftToeBase
				{
					OFFSET	 0.000000	 0.207117	 0.000000
					CHANNELS 3 Zrotation Xrotation Yrotation
					End Site
					{
						OFFSET	 0.000000	 0.207117	 0.000000
					}
				}
			}
		}
	}
	JOINT RightUpLeg
	{
		OFFSET	-0.124023	-0.065224	 0.008373
		CHANNELS 3 Zrotation Xrotation Yrotation
		JOINT RightLeg
		{
			OFFSET	 0.000000	 0.570047	 0.000000
			CHANNELS 3 Zrotation Xrotation Yrotation
			JOINT RightFoot
			{
				OFFSET	 0.000000	 0.544354	 0.000000
				CHANNELS 3 Zrotation Xrotation Yrotation
				JOINT RightToeBase
				{
					OFFSET	 0.000000	 0.207540	 0.000000
					CHANNELS 3 Zrotation Xrotation Yrotation
					End Site
					{
						OFFSET	 0.000000	 0.207540	 0.000000
					}
				}
			}
		}
	}
	JOINT Spine
	{
		OFFSET	 0.000184	 0.117403	 0.007763
		CHANNELS 3 Zrotation Xrotation Yrotation
		JOINT Spine1
		{
			OFFSET	 0.000000	 0.137269	 0.000000
			CHANNELS 3 Zrotation Xrotation Yrotation
			JOINT Spine2
			{
				OFFSET	 0.000000	 0.156879	 0.000000
				CHANNELS 3 Zrotation Xrotation Yrotation
				JOINT LeftShoulder
				{
					OFFSET	 0.080501	 0.160143	 0.002496
					CHANNELS 3 Zrotation Xrotation Yrotation
					JOINT LeftArm
					{
						OFFSET	 0.000000	 0.164363	 0.000000
						CHANNELS 3 Zrotation Xrotation Yrotation
						JOINT LeftForeArm
						{
							OFFSET	 0.000000	 0.364576	 0.000000
							CHANNELS 3 Zrotation Xrotation Yrotation
							JOINT LeftHand
							{
								OFFSET	 0.000000	 0.360812	 0.000000
								CHANNELS 3 Zrotation Xrotation Yrotation
								JOINT LeftHandIndex1
								{
									OFFSET	 0.000000	 0.086006	 0.000000
									CHANNELS 3 Zrotation Xrotation Yrotation
									JOINT LeftHandIndex2
									{
										OFFSET	 0.000000	 0.047237	 0.000000
										CHANNELS 3 Zrotation Xrotation Yrotation
										JOINT LeftHandIndex3
										{
											OFFSET	-0.004284	 0.038165	 0.000551
											CHANNELS 3 Zrotation Xrotation Yrotation
											End Site
											{
												OFFSET	-0.004284	 0.038165	 0.000551
											}
										}
									}
								}
							}
						}
					}
				}
				JOINT Neck
				{
					OFFSET	 0.000000	 0.176489	 0.000000
					CHANNELS 3 Zrotation Xrotation Yrotation
					JOINT Head
					{
						OFFSET	 0.000000	 0.077941	 0.001747
						CHANNELS 3 Zrotation Xrotation Yrotation
						End Site
						{
							OFFSET	 0.000000	 0.077941	 0.001747
						}
					}
				}
				JOINT RightShoulder
				{
					OFFSET	-0.080363	 0.159706	-0.000306
					CHANNELS 3 Zrotation Xrotation Yrotation
					JOINT RightArm
					{
						OFFSET	 0.000000	 0.164196	 0.000000
						CHANNELS 3 Zrotation Xrotation Yrotation
						JOINT RightForeArm
						{
							OFFSET	 0.000000	 0.365611	 0.000000
							CHANNELS 3 Zrotation Xrotation Yrotation
							JOINT RightHand
							{
								OFFSET	 0.000000	 0.360648	 0.000000
								CHANNELS 3 Zrotation Xrotation Yrotation
								JOINT RightHandIndex1
								{
									OFFSET	 0.000000	 0.069977	 0.000000
									CHANNELS 3 Zrotation Xrotation Yrotation
									JOINT RightHandIndex2
									{
										OFFSET	 0.000000	 0.052305	 0.000000
										CHANNELS 3 Zrotation Xrotation Yrotation
										JOINT RightHandIndex3
										{
											OFFSET	 0.009002	 0.042196	 0.000782
											CHANNELS 3 Zrotation Xrotation Yrotation
											End Site
											{
												OFFSET	 0.009002	 0.042196	 0.000782
											}
										}
									}
								}
							}
						}
					}
				}
			}
		}
	}
}
MOTION
Frames:    12
Frame Time: 0.03333334
 0.438450	 1.305493	 0.447700	 0.252462	-1.354873	-175.468100	-177.972500	 7.136704	-25.731370	 3.208806	-11.898320	 4.689681	 2.008528	 62.149380	 2.927449	 1.292262	 28.425850	-2.713146	 174.873900	 7.225716	 30.698920	-1.787078	-9.215885	 0.015469	-2.783834	 57.939110	-3.996436	-1.288183	 28.361890	 2.710176	 0.665686	 1.240442	-30.353160	 0.068789	-1.014756	-0.330109	 0.030647	-6.258485	-0.698724	-121.588200	 3.144763	 91.932350	 42.834200	 15.574670	 16.420840	 15.348930	-3.735389	-4.088811	 63.676000	 31.809210	 5.657089	-6.580301	 5.266122	 0.000000	 0.000000	 0.000000	 0.000000	 0.000000	 0.000000	 0.000000	 0.581487	 5.364728	-1.226582	-0.303711	-4.479540	-0.684148	 123.191600	 5.013687	-93.577730	-13.179080	 9.020767	-1.357909	-81.686810	 4.346558	-27.341270	-34.579950	 21.440880	-10.177010	 15.208500	 5.323790	 0.000000	 0.000000	 0.000000	 0.000000	 0.000000	 0.000000	 0.000000
 0.430378	 1.302302	 0.443500	 0.139678	-0.321063	-176.413100	-178.257600	 5.887571	-26.532570	 3.208718	-11.902400	 4.107202	 0.748424	 62.557150	 4.160827	 1.292262	 28.425850	-2.713146	 174.557300	 6.318637	 29.674050	-1.829962	-9.454215	 0.106727	-1.754199	 58.097450	-4.252083	-1.288183	 28.361890	 2.710176	 0.046834	 1.229062	-7.098608	 0.243974	 0.130344	-0.278732	-0.123495	-7.394022	-0.274003	-121.176300	 3.388808	 92.034770	 47.102100	 9.838257	 13.179690	 4.474895	-0.443031	-16.621120	 58.200670	 28.289370	-9.444097	-6.580301	 5.266122	 0.000000	 0.000000	 0.000000	 0.000000	 0.000000	 0.000000	 0.000000	 0.775357	 3.512772	-0.947047	-0.993049	-3.518590	-0.550828	 122.861800	 5.130426	-93.608000	-12.277790	 11.411800	-6.165032	-59.771570	 1.266981	-15.695090	-42.456020	 8.695910	-5.057127	 15.208500	 5.323790	 0.000000	 0.000000	 0.000000	 0.000000	 0.000000	 0.000000	 0.000000
 0.436771	 1.304132	 0.447657	 0.816032	-1.290457	-175.483000	-177.703500	 5.753335	-25.748950	 2.194508	-8.202181	 4.495090	 2.252457	 59.769870	 3.188620	 1.292262	 28.425850	-2.713146	 176.194100	 5.579210	 30.556530	-0.968306	-5.024621	 0.119476	-3.265576	 55.534520	-4.145051	-1.288183	 28.361890	 2.710176	 0.670177	 1.329137	-6.754969	-2.402748	-1.628919	-0.886681	 1.173437	-5.973413	-0.683521	-121.575600	 3.152193	 91.935510	 52.363140	 1.581623	 10.303790	 4.059436	-0.330105	-17.017970	 54.018480	 34.500790	-14.065200	-6.580301	 5.266122	 0.000000	 0.000000	 0.000000	 0.000000	 0.000000	 0.000000	 0.000000	 0.587281	 5.308166	-1.218128	-0.324625	-4.450207	-0.680315	 123.181500	 5.017234	-93.578660	-17.429070	 15.503300	-7.009760	-40.918470	 0.895253	-15.935300	-53.742910	 3.507435	-8.976424	 15.208500	 5.323790	 0.000000	 0.000000	 0.000000	 0.000000	 0.000000	 0.000000	 0.000000
 0.443811	 1.306185	 0.456169	 1.465704	-2.930273	-174.463100	-177.189000	 6.802103	-24.859330	 1.318306	-4.949582	 5.259163	 4.369864	 57.031590	 1.858698	 1.292262	 28.425850	-2.713146	 176.915500	 7.821744	 31.503190	-0.964234	-5.003666	 0.151286	-4.655220	 55.173660	-4.040763	-1.288183	 28.361890	 2.710176	 1.184852	 1.435693	-7.186336	-5.347818	-5.954867	-1.717989	 2.587655	-3.252152	-1.100113	-121.692200	 3.426834	 92.078250	 56.814480	-8.327553	 8.221227	 3.787203	-0.306306	-17.175010	 51.977340	 43.701080	-20.044680	-6.580301	 5.266122	 0.000000	 0.000000	 0.000000	 0.000000	 0.000000	 0.000000	 0.000000	 0.396219	 7.178663	-1.518992	 0.299480	-5.799936	-0.798484	 123.557700	 5.217972	-93.716640	-30.052630	 18.879790	-3.522326	-4.917100	 0.117166	-16.446950	-75.382510	 0.104683	-14.327370	 15.208500	 5.323790	 0.000000	 0.000000	 0.000000	 0.000000	 0.000000	 0.000000	 0.000000
 0.446468	 1.309324	 0.484601	 0.926686	-7.429221	-173.908300	-178.358300	 13.110800	-23.734220	 1.316567	-4.943114	 8.414073	 12.242910	 55.243780	-3.640553	 1.292262	 28.425850	-2.713146	 175.563200	 13.707760	 31.651300	-0.965377	-5.009536	-0.889831	-9.413115	 54.486060	-2.029799	-1.288183	 28.361890	 2.710176	-0.102553	 0.399053	-6.380161	-7.541599	-18.662240	-2.494991	 3.626189	 2.974265	-1.416576	-120.039700	 7.462159	 93.948960	 47.436940	-15.783920	 9.869670	 3.329750	-0.270847	-19.836610	 70.279300	 53.720410	-35.054810	-6.580301	 5.266122	 0.000000	 0.000000	 0.000000	 0.000000	 0.000000	 0.000000	 0.000000	 0.247575	 6.464328	-1.864234	 0.137461	-8.855431	-0.835485	 124.324300	 7.867359	-95.186330	-18.311890	 9.043553	-0.802257	-4.388763	 0.104661	-15.412870	-83.800480	 7.161677	-7.154293	 15.208500	 5.323790	 0.000000	 0.000000	 0.000000	 0.000000	 0.000000	 0.000000	 0.000000
 0.439342	 1.304898	 0.449406	 1.085037	-1.632118	-175.157600	-177.533600	 5.333302	-25.475650	 1.624014	-6.089314	 4.615912	 2.740716	 58.333530	 2.960818	 1.292262	 28.425850	-2.713146	 176.555600	 6.079747	 30.864610	-0.966163	-5.013596	 0.090715	-3.709606	 55.410560	-4.045628	-1.288183	 28.361890	 2.710176	 0.905699	 1.347176	-6.938236	-3.422517	-2.240761	-1.139397	 1.668169	-5.471882	-0.814306	-121.714700	 3.070014	 91.900590	 54.341380	-1.597454	 9.365574	 4.014192	-0.326407	-17.018260	 52.584670	 37.215170	-15.628560	-6.580301	 5.266122	 0.000000	 0.000000	 0.000000	 0.000000	 0.000000	 0.000000	 0.000000	 0.523695	 5.933237	-1.311274	-0.093990	-4.774508	-0.721818	 123.292800	 4.977887	-93.568320	-21.743350	 17.362410	-6.312815	-29.480940	 0.672713	-16.190530	-60.277360	 1.732608	-11.125500	 15.208500	 5.323790	 0.000000	 0.000000	 0.000000	 0.000000	 0.000000	 0.000000	 0.000000
 0.437755	 1.304419	 0.448295	 0.918340	-1.416339	-175.362300	-177.632200	 5.619306	-25.647610	 1.994078	-7.462176	 4.538999	 2.433548	 59.258630	 3.098286	 1.292262	 28.425850	-2.713146	 176.334100	 5.764347	 30.670990	-0.967344	-5.019707	 0.109159	-3.433199	 55.488720	-4.108140	-1.288183	 28.361890	 2.710176	 0.761192	 1.336180	-6.824850	-2.794343	-1.845727	-0.980796	 1.363472	-5.792458	-0.731958	-121.627100	 3.121745	 91.922590	 53.124690	 0.372012	 9.931482	 4.043871	-0.328830	-17.018160	 53.458360	 35.523490	-14.660670	-6.580301	 5.266122	 0.000000	 0.000000	 0.000000	 0.000000	 0.000000	 0.000000	 0.000000	 0.563627	 5.539593	-1.252686	-0.239112	-4.570241	-0.695897	 123.222700	 5.002668	-93.574860	-18.804410	 16.197910	-6.869191	-37.061210	 0.823775	-16.029660	-55.982940	 2.825610	-9.752716	 15.208500	 5.323790	 0.000000	 0.000000	 0.000000	 0.000000	 0.000000	 0.000000	 0.000000
 0.436205	 1.303968	 0.447300	 0.757649	-1.219130	-175.551300	-177.746700	 5.818335	-25.806510	 2.302541	-8.599773	 4.470385	 2.148759	 60.048610	 3.243371	 1.292262	 28.425850	-2.713146	 176.113500	 5.473494	 30.490910	-0.968488	-5.025673	 0.125434	-3.170036	 55.559360	-4.165492	-1.288183	 28.361890	 2.710176	 0.617668	 1.324734	-6.714881	-2.176704	-1.509473	-0.751137	 1.054859	-6.075785	-0.738825	-121.546400	 3.169517	 91.942840	 51.922240	 2.276425	 10.524650	 4.067939	-0.330751	-17.017930	 54.344660	 33.918940	-13.720630	-6.580301	 5.266122	 0.000000	 0.000000	 0.000000	 0.000000	 0.000000	 0.000000	 0.000000	 0.600796	 5.176517	-1.198431	-0.373334	-4.381949	-0.671341	 123.158100	 5.025532	-93.580850	-16.744340	 15.112520	-7.040111	-42.939290	 0.931174	-15.882390	-52.553440	 3.902218	-8.547294	 15.208500	 5.323790	 0.000000	 0.000000	 0.000000	 0.000000	 0.000000	 0.000000	 0.000000
 0.434810	 1.303571	 0.446443	 0.614056	-1.043061	-175.721300	-177.859600	 5.942222	-25.949850	 2.549355	-9.505001	 4.408261	 1.888811	 60.695690	 3.390240	 1.292262	 28.425850	-2.713146	 175.913100	 5.215867	 30.327160	-0.969679	-5.031751	 0.139341	-2.933318	 55.621460	-4.215578	-1.288183	 28.361890	 2.710176	 0.486759	 1.311046	-6.615003	-1.618347	-1.215819	-0.650057	 0.786016	-6.323164	-0.641387	-121.473800	 3.212492	 91.960980	 50.830380	 3.988153	 11.090090	 4.084477	-0.332060	-17.017850	 55.159420	 32.499100	-12.861340	-6.580301	 5.266122	 0.000000	 0.000000	 0.000000	 0.000000	 0.000000	 0.000000	 0.000000	 0.634499	 4.850039	-1.149465	-0.494331	-4.212554	-0.648737	 123.100000	 5.046086	-93.586200	-15.312340	 14.177150	-6.992968	-47.448550	 1.006894	-15.754480	-49.858220	 4.882334	-7.534463	 15.208500	 5.323790	 0.000000	 0.000000	 0.000000	 0.000000	 0.000000	 0.000000	 0.000000
 0.433614	 1.303233	 0.445715	 0.490851	-0.886039	-175.872700	-177.962000	 6.006831	-26.077960	 2.742645	-10.210560	 4.350813	 1.652283	 61.214700	 3.535019	 1.292262	 28.425850	-2.713146	 175.690000	 5.133634	 30.183620	-1.029727	-5.341548	 0.145988	-2.707152	 55.830430	-4.245302	-1.288183	 28.361890	 2.710176	 0.373405	 1.297022	-6.527586	-1.138867	-0.952618	-0.562754	 0.554434	-6.543769	-0.555734	-121.409000	 3.250859	 91.977130	 49.885780	 5.460386	 11.597080	 4.096978	-0.333113	-17.017860	 55.866600	 31.291710	-12.107230	-6.580301	 5.266122	 0.000000	 0.000000	 0.000000	 0.000000	 0.000000	 0.000000	 0.000000	 0.664801	 4.558694	-1.105621	-0.602556	-4.061370	-0.628138	 123.048100	 5.064456	-93.591000	-14.315290	 13.406730	-6.845772	-50.894090	 1.060550	-15.646120	-47.758030	 5.727848	-6.712241	 15.208500	 5.323790	 0.000000	 0.000000	 0.000000	 0.000000	 0.000000	 0.000000	 0.000000
 0.432623	 1.302954	 0.445102	 0.388771	-0.746734	-176.007200	-178.049100	 6.028379	-26.113980	 2.877139	-10.757370	 4.217547	 1.436976	 61.625570	 3.675050	 1.292262	 28.425850	-2.713146	 175.304600	 5.634546	 30.072180	-1.317812	-6.823194	 0.125874	-2.431108	 56.629460	-4.223038	-1.288183	 28.361890	 2.710176	 0.278892	 1.281238	-6.452954	-0.741232	-0.710970	-0.487835	 0.361470	-6.742814	-0.481657	-121.351200	 3.285082	 91.991490	 49.096650	 6.689429	 12.032370	 4.104643	-0.333763	-17.017770	 56.458620	 30.291100	-11.465660	-6.580301	 5.266122	 0.000000	 0.000000	 0.000000	 0.000000	 0.000000	 0.000000	 0.000000	 0.691975	 4.299154	-1.066445	-0.699166	-3.926748	-0.609446	 123.001900	 5.080819	-93.595220	-13.616870	 12.792060	-6.671753	-53.518600	 1.099015	-15.555440	-46.133500	 6.427225	-6.065712	 15.208500	 5.323790	 0.000000	 0.000000	 0.000000	 0.000000	 0.000000	 0.000000	 0.000000
 0.431857	 1.302736	 0.444610	 0.309161	-0.627681	-176.121600	-178.118100	 6.018745	-26.228070	 2.989618	-11.151650	 4.189664	 1.256035	 61.933610	 3.795059	 1.292262	 28.425850	-2.713146	 175.040400	 5.920792	 29.980070	-1.503899	-7.775368	 0.110759	-2.206707	 57.151340	-4.236328	-1.288183	 28.361890	 2.710176	 0.205293	 1.266546	-6.392637	-0.434594	-0.495477	-0.426571	 0.211743	-6.916437	-0.420554	-121.302100	 3.314186	 92.003650	 48.482270	 7.648750	 12.377700	 4.109873	-0.334135	-17.017730	 56.919350	 29.512050	-10.956250	-6.580301	 5.266122	 0.000000	 0.000000	 0.000000	 0.000000	 0.000000	 0.000000	 0.000000	 0.715238	 4.078258	-1.033013	-0.781540	-3.812101	-0.593284	 122.962600	 5.094729	-93.598820	-13.142440	 12.333810	-6.518507	-55.428320	 1.125479	-15.483220	-44.938690	 6.960710	-5.593940	 15.208500	 5.323790	 0.000000	 0.000000	 0.000000	 0.000000	 0.000000	 0.000000	 0.000000
